REM DIRINDEX 1\5,1\2\6,1\2\7,1\3\8,1\3\9,1\4\10,1\4\11,1\4\12
REM DIRNAME folder01,folder02,folder03,folder04,folder05,folder06,folder07,folder08,folder09,folder10,folder11,folder12
TITLE ""
FILE "EJE_DB3000_5th_1A_05.mp3" MP3
  TRACK 01 AUDIO
    TITLE "0:"
    INDEX 01 00:00:00
  TRACK 02 AUDIO
    TITLE "10:cjc026_06981"
    INDEX 01 00:00:07
  TRACK 03 AUDIO
    TITLE "0:"
    INDEX 01 00:00:74
  TRACK 04 AUDIO
    TITLE "11:cjc026_06982"
    INDEX 01 00:01:26
  TRACK 05 AUDIO
    TITLE "0:"
    INDEX 01 00:02:26
  TRACK 06 AUDIO
    TITLE "12:cjc026_06983"
    INDEX 01 00:02:53
  TRACK 07 AUDIO
    TITLE "0:"
    INDEX 01 00:03:45
  TRACK 08 AUDIO
    TITLE "10:cjc026_06984"
    INDEX 01 00:03:70
  TRACK 09 AUDIO
    TITLE "0:"
    INDEX 01 00:05:03
  TRACK 10 AUDIO
    TITLE "11:cjc026_06985"
    INDEX 01 00:05:30
  TRACK 11 AUDIO
    TITLE "0:"
    INDEX 01 00:06:33
  TRACK 12 AUDIO
    TITLE "12:cjc026_06986"
    INDEX 01 00:06:59
  TRACK 13 AUDIO
    TITLE "0:"
    INDEX 01 00:07:64
  TRACK 14 AUDIO
    TITLE "10:cjc026_06987"
    INDEX 01 00:08:17
  TRACK 15 AUDIO
    TITLE "0:"
    INDEX 01 00:09:18
  TRACK 16 AUDIO
    TITLE "11:cjc026_06988"
    INDEX 01 00:09:44
  TRACK 17 AUDIO
    TITLE "0:"
    INDEX 01 00:10:49
  TRACK 18 AUDIO
    TITLE "12:cjc026_06989"
    INDEX 01 00:10:74
  TRACK 19 AUDIO
    TITLE "0:"
    INDEX 01 00:12:01
  TRACK 20 AUDIO
    TITLE "10:cjc026_06990"
    INDEX 01 00:12:26
  TRACK 21 AUDIO
    TITLE "0:"
    INDEX 01 00:13:14
  TRACK 22 AUDIO
    TITLE "11:cjc026_06991"
    INDEX 01 00:13:39
  TRACK 23 AUDIO
    TITLE "0:"
    INDEX 01 00:14:37
  TRACK 24 AUDIO
    TITLE "12:cjc026_06992"
    INDEX 01 00:14:62
  TRACK 25 AUDIO
    TITLE "0:"
    INDEX 01 00:15:50
  TRACK 26 AUDIO
    TITLE "10:cjc026_06993"
    INDEX 01 00:16:02
  TRACK 27 AUDIO
    TITLE "0:"
    INDEX 01 00:17:02
  TRACK 28 AUDIO
    TITLE "11:cjc026_06994"
    INDEX 01 00:17:27
  TRACK 29 AUDIO
    TITLE "0:"
    INDEX 01 00:18:27
  TRACK 30 AUDIO
    TITLE "12:cjc026_06995"
    INDEX 01 00:18:54
  TRACK 31 AUDIO
    TITLE "0:"
    INDEX 01 00:19:54
  TRACK 32 AUDIO
    TITLE "10:cjc026_06996"
    INDEX 01 00:20:04
  TRACK 33 AUDIO
    TITLE "0:"
    INDEX 01 00:21:15
  TRACK 34 AUDIO
    TITLE "11:cjc026_06997"
    INDEX 01 00:21:43
  TRACK 35 AUDIO
    TITLE "0:"
    INDEX 01 00:22:52
  TRACK 36 AUDIO
    TITLE "12:cjc026_06998"
    INDEX 01 00:23:04
  TRACK 37 AUDIO
    TITLE "0:"
    INDEX 01 00:24:16
  TRACK 38 AUDIO
    TITLE "10:cjc026_06999"
    INDEX 01 00:24:41
  TRACK 39 AUDIO
    TITLE "0:"
    INDEX 01 00:25:27
  TRACK 40 AUDIO
    TITLE "11:cjc026_07000"
    INDEX 01 00:25:56
  TRACK 41 AUDIO
    TITLE "0:"
    INDEX 01 00:26:54
  TRACK 42 AUDIO
    TITLE "12:cjc026_07001"
    INDEX 01 00:27:04
  TRACK 43 AUDIO
    TITLE "0:"
    INDEX 01 00:27:67
  TRACK 44 AUDIO
    TITLE "10:cjc026_07002"
    INDEX 01 00:28:19
  TRACK 45 AUDIO
    TITLE "0:"
    INDEX 01 00:29:11
  TRACK 46 AUDIO
    TITLE "11:cjc026_07003"
    INDEX 01 00:29:36
  TRACK 47 AUDIO
    TITLE "0:"
    INDEX 01 00:30:30
  TRACK 48 AUDIO
    TITLE "12:cjc026_07004"
    INDEX 01 00:30:55
  TRACK 49 AUDIO
    TITLE "0:"
    INDEX 01 00:31:47
  TRACK 50 AUDIO
    TITLE "10:cjc026_07005"
    INDEX 01 00:32:00
  TRACK 51 AUDIO
    TITLE "0:"
    INDEX 01 00:32:64
  TRACK 52 AUDIO
    TITLE "11:cjc026_07006"
    INDEX 01 00:33:17
  TRACK 53 AUDIO
    TITLE "0:"
    INDEX 01 00:34:18
  TRACK 54 AUDIO
    TITLE "12:cjc026_07007"
    INDEX 01 00:34:45
  TRACK 55 AUDIO
    TITLE "0:"
    INDEX 01 00:35:37
  TRACK 56 AUDIO
    TITLE "10:cjc026_07008"
    INDEX 01 00:35:63
  TRACK 57 AUDIO
    TITLE "0:"
    INDEX 01 00:36:50
  TRACK 58 AUDIO
    TITLE "11:cjc026_07009"
    INDEX 01 00:37:01
  TRACK 59 AUDIO
    TITLE "0:"
    INDEX 01 00:38:55
  TRACK 60 AUDIO
    TITLE "12:cjc026_07010"
    INDEX 01 00:39:05
  TRACK 61 AUDIO
    TITLE "0:"
    INDEX 01 00:39:68
  TRACK 62 AUDIO
    TITLE "10:cjc026_07011"
    INDEX 01 00:40:21
  TRACK 63 AUDIO
    TITLE "0:"
    INDEX 01 00:41:12
  TRACK 64 AUDIO
    TITLE "11:cjc026_07012"
    INDEX 01 00:41:40
  TRACK 65 AUDIO
    TITLE "0:"
    INDEX 01 00:42:57
  TRACK 66 AUDIO
    TITLE "12:cjc026_07013"
    INDEX 01 00:43:07
  TRACK 67 AUDIO
    TITLE "0:"
    INDEX 01 00:44:01
  TRACK 68 AUDIO
    TITLE "10:cjc026_07014"
    INDEX 01 00:44:26
  TRACK 69 AUDIO
    TITLE "0:"
    INDEX 01 00:45:12
  TRACK 70 AUDIO
    TITLE "11:cjc026_07015"
    INDEX 01 00:45:39
  TRACK 71 AUDIO
    TITLE "0:"
    INDEX 01 00:47:44
  TRACK 72 AUDIO
    TITLE "12:cjc026_07016"
    INDEX 01 00:47:70
  TRACK 73 AUDIO
    TITLE "0:"
    INDEX 01 00:48:55
  TRACK 74 AUDIO
    TITLE "10:cjc026_07017"
    INDEX 01 00:49:08
  TRACK 75 AUDIO
    TITLE "0:"
    INDEX 01 00:50:05
  TRACK 76 AUDIO
    TITLE "11:cjc026_07018"
    INDEX 01 00:50:31
  TRACK 77 AUDIO
    TITLE "0:"
    INDEX 01 00:51:15
  TRACK 78 AUDIO
    TITLE "12:cjc026_07019"
    INDEX 01 00:51:42
  TRACK 79 AUDIO
    TITLE "0:"
    INDEX 01 00:52:39
